<mxfile host="65bd71144e">
    <diagram id="1NZuqnSG1IwwTM9QCwbI" name="Page-1">
        <mxGraphModel dx="986" dy="485" grid="0" gridSize="10" guides="1" tooltips="1" connect="1" arrows="1" fold="1" page="1" pageScale="1" pageWidth="827" pageHeight="1169" math="0" shadow="0">
            <root>
                <mxCell id="0"/>
                <mxCell id="1" parent="0"/>
                <mxCell id="2" value="Helmet" style="rounded=0;whiteSpace=wrap;html=1;" parent="1" vertex="1">
                    <mxGeometry x="48" y="68" width="120" height="60" as="geometry"/>
                </mxCell>
                <mxCell id="3" value="ChestPlate" style="rounded=0;whiteSpace=wrap;html=1;" vertex="1" parent="1">
                    <mxGeometry x="48" y="148" width="120" height="60" as="geometry"/>
                </mxCell>
                <mxCell id="4" value="Gloves" style="rounded=0;whiteSpace=wrap;html=1;" vertex="1" parent="1">
                    <mxGeometry x="48" y="228" width="120" height="60" as="geometry"/>
                </mxCell>
                <mxCell id="5" value="Shoes" style="rounded=0;whiteSpace=wrap;html=1;" vertex="1" parent="1">
                    <mxGeometry x="48" y="308" width="120" height="60" as="geometry"/>
                </mxCell>
                <mxCell id="6" value="LeftWeapon" style="rounded=0;whiteSpace=wrap;html=1;" vertex="1" parent="1">
                    <mxGeometry x="277" y="68" width="120" height="60" as="geometry"/>
                </mxCell>
                <mxCell id="7" value="RightWeapon" style="rounded=0;whiteSpace=wrap;html=1;" vertex="1" parent="1">
                    <mxGeometry x="410" y="68" width="120" height="60" as="geometry"/>
                </mxCell>
                <mxCell id="8" value="Travel" style="rounded=0;whiteSpace=wrap;html=1;" vertex="1" parent="1">
                    <mxGeometry x="277" y="148" width="120" height="60" as="geometry"/>
                </mxCell>
                <mxCell id="9" value="Lamp" style="rounded=0;whiteSpace=wrap;html=1;" vertex="1" parent="1">
                    <mxGeometry x="277" y="228" width="120" height="60" as="geometry"/>
                </mxCell>
                <mxCell id="10" value="LeftRing" style="rounded=0;whiteSpace=wrap;html=1;" vertex="1" parent="1">
                    <mxGeometry x="277" y="308" width="120" height="60" as="geometry"/>
                </mxCell>
                <mxCell id="11" value="RightRing" style="rounded=0;whiteSpace=wrap;html=1;" vertex="1" parent="1">
                    <mxGeometry x="410" y="308" width="120" height="60" as="geometry"/>
                </mxCell>
                <mxCell id="12" value="Pet" style="rounded=0;whiteSpace=wrap;html=1;" vertex="1" parent="1">
                    <mxGeometry x="410" y="228" width="120" height="60" as="geometry"/>
                </mxCell>
                <mxCell id="13" value="UsableAtOnce" style="rounded=0;whiteSpace=wrap;html=1;fillColor=default;gradientColor=none;" vertex="1" parent="1">
                    <mxGeometry x="624" y="68" width="87" height="141" as="geometry"/>
                </mxCell>
            </root>
        </mxGraphModel>
    </diagram>
</mxfile>